<?xml version="1.0" encoding="iso-8859-1"?>
<!-- Generator: Adobe Illustrator 19.0.0, SVG Export Plug-In . SVG Version: 6.00 Build 0)  -->
<svg version="1.1" id="Capa_1" xmlns="http://www.w3.org/2000/svg" xmlns:xlink="http://www.w3.org/1999/xlink" x="0px" y="0px"
	 viewBox="0 0 512 512" style="enable-background:new 0 0 512 512;" xml:space="preserve">
<g>
	<g>
		<path d="M356,146c-5.52,0-10,4.48-10,10s4.48,10,10,10c5.52,0,10-4.48,10-10S361.52,146,356,146z"/>
	</g>
</g>
<g>
	<g>
		<path d="M356,346c-5.52,0-10,4.48-10,10c0,5.52,4.48,10,10,10c5.52,0,10-4.48,10-10C366,350.48,361.52,346,356,346z"/>
	</g>
</g>
<g>
	<g>
		<path d="M156,146c-5.52,0-10,4.48-10,10s4.48,10,10,10s10-4.48,10-10S161.52,146,156,146z"/>
	</g>
</g>
<g>
	<g>
		<path d="M156,346c-5.52,0-10,4.48-10,10c0,5.52,4.48,10,10,10s10-4.48,10-10C166,350.48,161.52,346,156,346z"/>
	</g>
</g>
<g>
	<g>
		<path d="M453.72,266c4.128,11.639,15.243,20,28.28,20c16.542,0,30-13.458,30-30s-13.458-30-30-30c-13.036,0-24.152,8.361-28.28,20
			H406v-80h47.72c4.128,11.639,15.243,20,28.28,20c16.542,0,30-13.458,30-30s-13.458-30-30-30c-13.036,0-24.152,8.361-28.28,20H406
			v-10c0-16.542-13.458-30-30-30h-10V58.28c11.639-4.128,20-15.243,20-28.28c0-16.542-13.458-30-30-30s-30,13.458-30,30
			c0,13.036,8.361,24.152,20,28.28V106h-80V58.28c11.639-4.128,20-15.243,20-28.28c0-16.542-13.458-30-30-30s-30,13.458-30,30
			c0,13.036,8.361,24.152,20,28.28V106h-80V58.28c11.639-4.128,20-15.243,20-28.28c0-16.542-13.458-30-30-30s-30,13.458-30,30
			c0,13.036,8.361,24.152,20,28.28V106h-10c-16.542,0-30,13.458-30,30v10H58.28c-4.128-11.639-15.243-20-28.28-20
			c-16.542,0-30,13.458-30,30s13.458,30,30,30c13.036,0,24.152-8.361,28.28-20H106v80H58.28c-4.128-11.639-15.243-20-28.28-20
			c-16.542,0-30,13.458-30,30s13.458,30,30,30c13.036,0,24.152-8.361,28.28-20H106v80H58.28c-4.128-11.639-15.243-20-28.28-20
			c-16.542,0-30,13.458-30,30s13.458,30,30,30c13.036,0,24.152-8.361,28.28-20H106v10c0,16.542,13.458,30,30,30h10v47.72
			c-11.639,4.128-20,15.243-20,28.28c0,16.542,13.458,30,30,30s30-13.458,30-30c0-13.036-8.361-24.152-20-28.28V406h80v47.72
			c-11.639,4.128-20,15.243-20,28.28c0,16.542,13.458,30,30,30s30-13.458,30-30c0-13.036-8.361-24.152-20-28.28V406h80v47.72
			c-11.639,4.128-20,15.243-20,28.28c0,16.542,13.458,30,30,30s30-13.458,30-30c0-13.036-8.361-24.152-20-28.28V406h10
			c16.542,0,30-13.458,30-30v-10h47.72c4.128,11.639,15.243,20,28.28,20c16.542,0,30-13.458,30-30s-13.458-30-30-30
			c-13.036,0-24.152,8.361-28.28,20H406v-80H453.72z M482,246c5.514,0,10,4.486,10,10c0,5.514-4.486,10-10,10
			c-5.514,0-10-4.486-10-10C472,250.486,476.486,246,482,246z M482,146c5.514,0,10,4.486,10,10c0,5.514-4.486,10-10,10
			c-5.514,0-10-4.486-10-10C472,150.486,476.486,146,482,146z M30,166c-5.514,0-10-4.486-10-10c0-5.514,4.486-10,10-10
			s10,4.486,10,10C40,161.514,35.514,166,30,166z M30,266c-5.514,0-10-4.486-10-10c0-5.514,4.486-10,10-10s10,4.486,10,10
			C40,261.514,35.514,266,30,266z M30,366c-5.514,0-10-4.486-10-10c0-5.514,4.486-10,10-10s10,4.486,10,10
			C40,361.514,35.514,366,30,366z M356,20c5.514,0,10,4.486,10,10s-4.486,10-10,10c-5.514,0-10-4.486-10-10S350.486,20,356,20z
			 M256,20c5.514,0,10,4.486,10,10s-4.486,10-10,10c-5.514,0-10-4.486-10-10S250.486,20,256,20z M156,20c5.514,0,10,4.486,10,10
			s-4.486,10-10,10c-5.514,0-10-4.486-10-10S150.486,20,156,20z M156,492c-5.514,0-10-4.486-10-10c0-5.514,4.486-10,10-10
			c5.514,0,10,4.486,10,10C166,487.514,161.514,492,156,492z M256,492c-5.514,0-10-4.486-10-10c0-5.514,4.486-10,10-10
			c5.514,0,10,4.486,10,10C266,487.514,261.514,492,256,492z M356,492c-5.514,0-10-4.486-10-10c0-5.514,4.486-10,10-10
			c5.514,0,10,4.486,10,10C366,487.514,361.514,492,356,492z M386,376c0,5.514-4.486,10-10,10H136c-5.514,0-10-4.486-10-10V136
			c0-5.514,4.486-10,10-10h240c5.514,0,10,4.486,10,10V376z M482,346c5.514,0,10,4.486,10,10c0,5.514-4.486,10-10,10
			c-5.514,0-10-4.486-10-10C472,350.486,476.486,346,482,346z"/>
	</g>
</g>
<g>
	<g>
		<path d="M357.601,280.02l-22.472-12.977c0.584-3.81,0.872-7.465,0.872-11.043s-0.287-7.233-0.872-11.043l22.472-12.977
			c4.783-2.762,6.421-8.878,3.66-13.66l-20-34.641c-1.326-2.297-3.51-3.973-6.072-4.659c-2.563-0.688-5.292-0.328-7.588,0.999
			l-22.563,13.028c-5.759-4.465-12.127-8.102-19.037-10.873V156c0-5.522-4.477-10-10-10h-40c-5.523,0-10,4.478-10,10v26.188
			c-6.861,2.772-13.284,6.442-19.019,10.866L184.4,180.019c-4.782-2.758-10.898-1.121-13.659,3.661l-20,34.641
			c-2.761,4.782-1.123,10.898,3.66,13.66l22.472,12.977C176.287,248.767,176,252.422,176,256s0.287,7.233,0.872,11.043L154.4,280.02
			c-4.783,2.762-6.421,8.878-3.66,13.66l20,34.641c2.761,4.782,8.878,6.421,13.659,3.661l22.582-13.035
			c5.735,4.424,12.158,8.094,19.019,10.866V356c0,5.522,4.477,10,10,10h40c5.523,0,10-4.478,10-10v-26.175
			c6.91-2.771,13.278-6.408,19.037-10.873L327.6,331.98c2.297,1.327,5.027,1.688,7.588,0.999c2.562-0.687,4.746-2.362,6.072-4.659
			l20-34.641C364.021,288.897,362.383,282.781,357.601,280.02z M328.94,309.659l-20.02-11.56c-3.827-2.21-8.65-1.645-11.864,1.388
			c-6.679,6.303-14.734,10.904-23.94,13.678c-4.225,1.272-7.116,5.163-7.116,9.575V346h-20v-23.26c0-4.412-2.892-8.303-7.116-9.575
			c-9.209-2.773-17.259-7.374-23.926-13.674c-3.212-3.036-8.039-3.602-11.867-1.393l-20.03,11.563l-10-17.322l20-11.549
			c3.831-2.212,5.753-6.678,4.727-10.98C196.584,264.768,196,260.25,196,256s0.584-8.768,1.787-13.81
			c1.026-4.303-0.896-8.769-4.727-10.98l-20-11.549l10-17.322l20.03,11.563c3.828,2.208,8.654,1.644,11.867-1.393
			c6.667-6.3,14.716-10.9,23.926-13.674c4.225-1.272,7.116-5.163,7.116-9.575V166h20v23.26c0,4.412,2.892,8.303,7.116,9.575
			c9.207,2.773,17.261,7.375,23.94,13.678c3.213,3.034,8.037,3.599,11.864,1.388l20.02-11.56l10,17.32l-20,11.549
			c-3.831,2.212-5.753,6.678-4.727,10.98c1.203,5.042,1.787,9.56,1.787,13.81s-0.584,8.768-1.787,13.81
			c-1.026,4.303,0.896,8.769,4.727,10.98l20,11.549L328.94,309.659z"/>
	</g>
</g>
<g>
	<g>
		<path d="M254,215c-22.056,0-40,17.944-40,40c0,22.056,17.944,40,40,40c22.056,0,40-17.944,40-40C294,232.944,276.056,215,254,215z
			 M254,275c-11.028,0-20-8.972-20-20s8.972-20,20-20s20,8.972,20,20S265.028,275,254,275z"/>
	</g>
</g>
<g>
</g>
<g>
</g>
<g>
</g>
<g>
</g>
<g>
</g>
<g>
</g>
<g>
</g>
<g>
</g>
<g>
</g>
<g>
</g>
<g>
</g>
<g>
</g>
<g>
</g>
<g>
</g>
<g>
</g>
</svg>
